<?xml version="1.0" encoding="UTF-8" standalone="no"?>
<!-- Created with Inkscape (http://www.inkscape.org/) -->

<svg
   width="2000"
   height="500"
   viewBox="0 0 529.16668 132.29167"
   version="1.1"
   id="svg5"
   xml:space="preserve"
   inkscape:version="1.2.2 (732a01da63, 2022-12-09)"
   sodipodi:docname="banner.svg"
   xmlns:inkscape="http://www.inkscape.org/namespaces/inkscape"
   xmlns:sodipodi="http://sodipodi.sourceforge.net/DTD/sodipodi-0.dtd"
   xmlns="http://www.w3.org/2000/svg"
   xmlns:svg="http://www.w3.org/2000/svg"><sodipodi:namedview
     id="namedview7"
     pagecolor="#ffffff"
     bordercolor="#000000"
     borderopacity="0.25"
     inkscape:showpageshadow="2"
     inkscape:pageopacity="0.0"
     inkscape:pagecheckerboard="0"
     inkscape:deskcolor="#d1d1d1"
     inkscape:document-units="mm"
     showgrid="false"
     inkscape:zoom="0.52221046"
     inkscape:cx="538.09723"
     inkscape:cy="405.96659"
     inkscape:window-width="2560"
     inkscape:window-height="1009"
     inkscape:window-x="-8"
     inkscape:window-y="-8"
     inkscape:window-maximized="1"
     inkscape:current-layer="text436" /><defs
     id="defs2"><inkscape:path-effect
       effect="fill_between_many"
       method="originald"
       linkedpaths="#path488,0,1"
       id="path-effect599" /></defs><g
     inkscape:label="Ebene 1"
     inkscape:groupmode="layer"
     id="layer1"><g
       id="g222"
       transform="matrix(1.9644656,-0.28039115,0.28039115,1.9644656,-10.568389,11.546297)"><ellipse
         cx="32"
         cy="49.400002"
         fill="#d0d0d0"
         rx="30"
         ry="12.6"
         id="ellipse132" /><path
         fill="#d3976e"
         d="M 7.7,24.8 V 47.3 C 7.7,53 18.6,57.6 32,57.6 45.4,57.6 56.3,53 56.3,47.4 V 24.8 Z"
         id="path134" /><g
         fill="#ffdd7d"
         id="g140"><path
           d="m 56.3,31.4 c -0.1,4 -15.4,8.4 -24.3,8.4 -8.9,0 -24.2,-4.4 -24.3,-8.4 v 6.1 c 12.5,9 36.1,9 48.6,0 v -6.1"
           id="path136" /><path
           d="M 56.3,41 C 56.2,45 40.9,49.4 32,49.4 23.1,49.4 7.8,45 7.7,41 v 6.1 c 12.5,9 36.1,9 48.6,0 V 41"
           id="path138" /></g><path
         fill="#a80038"
         d="m 7.7,24.8 v 16.9 c 0,0.9 0.8,1.7 1.9,1.7 1,0 1.9,-0.7 1.9,-1.7 v -3.9 c 0,-1.2 1.1,-2.2 2.5,-2.2 1.4,0 2.5,1 2.5,2.2 v 4.8 c 0,1.4 1.3,2.6 2.9,2.6 1.6,0 2.9,-1.1 2.9,-2.6 v -4.9 c 0,-1.3 1.2,-2.3 2.6,-2.3 1.4,0 2.6,1 2.6,2.3 v 3.1 c 0,0.7 0.6,1.3 1.5,1.3 0.8,0 1.5,-0.6 1.5,-1.3 v -2.5 c 0,-0.9 0.8,-1.7 1.9,-1.7 1,0 1.9,0.7 1.9,1.7 v 4.2 c 0,1.4 1.3,2.6 2.9,2.6 1.6,0 2.9,-1.1 2.9,-2.6 v -4.7 c 0,-1.2 1.1,-2.2 2.5,-2.2 1.4,0 2.5,1 2.5,2.2 v 3.5 c 0,0.7 0.7,1.3 1.5,1.3 0.8,0 1.5,-0.6 1.5,-1.3 v -2.4 c 0,-0.6 0.6,-1.1 1.3,-1.1 0.7,0 1.3,0.5 1.3,1.1 v 3.7 c 0,1.4 1.3,2.6 2.9,2.6 1.6,0 2.9,-1.1 2.9,-2.6 V 24.9 L 7.7,24.8"
         id="path142" /><ellipse
         cx="32"
         cy="24.799999"
         fill="#ff2c68"
         rx="24.299999"
         ry="10.2"
         id="ellipse144" /><path
         fill="#ffa4a4"
         d="m 14.4,23.8 c -0.1,-6.5 28.7,-7.4 28.8,-1.6 0.1,4.3 -18.3,4.5 -18.4,1.1 -0.1,-2.4 11.4,-2.5 11.4,-0.7 0,1.8 -9.3,2.1 -7.1,-0.2 -3.7,2.8 8.1,2.9 8,0.3 -0.1,-3 -13.9,-2.6 -13.9,0.5 0.1,4.6 21.4,4.1 21.3,-1.1 -0.1,-6.8 -32,-6.5 -31.8,1.6 0.2,8.9 31.2,12.1 41.3,0.8 -13.7,10.4 -39.5,5.4 -39.6,-0.7"
         id="path146" /><path
         fill="#42ade2"
         d="m 11.8,11.6 v 10.8 c 0,1.5 3.2,1.3 3.2,0 V 11.6 c 0,-1.5 -3.2,-1.5 -3.2,0"
         id="path148" /><path
         fill="#428bc1"
         d="m 15,12.6 -3.2,1.7 v 1.9 L 15,14.6 Z m -3.2,6.9 v 1.8 L 15,19.7 v -1.9 z"
         id="path150" /><path
         fill="#ff8b00"
         d="m 15.1,9.2 c 0,2.5 -3.3,2.5 -3.3,0 0,-0.8 1.7,-3.4 1.7,-3.4 0,0 1.6,2.6 1.6,3.4"
         id="path152" /><path
         fill="#fff033"
         d="m 14.3,10 c 0,1.4 -1.7,1.4 -1.7,0 0,-0.4 0.8,-1.7 0.8,-1.7 0,0 0.9,1.3 0.9,1.7"
         id="path154" /><path
         fill="#42ade2"
         d="m 30.6,7.2 v 9.4 c 0,1.5 2.8,1.2 2.8,0 V 7.2 c 0,-1.5 -2.8,-1.5 -2.8,0"
         id="path156" /><path
         fill="#428bc1"
         d="m 33.4,8 -2.8,1.5 v 1.7 l 2.8,-1.5 z m -2.8,6 v 1.6 l 2.8,-1.4 v -1.6 z"
         id="path158" /><path
         fill="#ff8b00"
         d="m 33.4,5 c 0,2.3 -2.9,2.3 -2.9,0 0,-0.7 1.4,-3 1.4,-3 0,0 1.5,2.3 1.5,3"
         id="path160" /><path
         fill="#fff033"
         d="m 32.7,5.7 c 0,1.4 -1.4,1.4 -1.4,0 0,-0.4 0.7,-1.5 0.7,-1.5 0,0 0.7,1.1 0.7,1.5"
         id="path162" /><path
         fill="#42ade2"
         d="m 48.9,11.6 v 10.8 c 0,1.5 3.2,1.3 3.2,0 V 11.6 c 0,-1.5 -3.2,-1.5 -3.2,0"
         id="path164" /><path
         fill="#428bc1"
         d="m 52.1,12.6 -3.2,1.7 v 1.9 l 3.2,-1.7 z m -3.2,6.9 v 1.8 l 3.2,-1.7 v -1.8 z"
         id="path166" /><path
         fill="#ff8b00"
         d="m 52.2,9.2 c 0,2.5 -3.3,2.5 -3.3,0 0,-0.8 1.7,-3.4 1.7,-3.4 0,0 1.6,2.5 1.6,3.4"
         id="path168" /><path
         fill="#fff033"
         d="m 51.4,9.9 c 0,1.4 -1.7,1.4 -1.7,0 0,-0.4 0.8,-1.7 0.8,-1.7 0,0 0.9,1.3 0.9,1.7"
         id="path170" /><path
         fill="#9fe4ff"
         d="m 20,18.3 v 13.1 c 0,1.7 3.9,1.3 3.9,0 V 18.3 c 0,-1.6 -3.9,-1.6 -3.9,0"
         id="path172" /><path
         fill="#42ade2"
         d="M 23.9,19.6 20,21.5 v 2.4 l 3.9,-2 z M 20,27.8 V 30 l 3.9,-1.9 v -2.2 z"
         id="path174" /><path
         fill="#ff8b00"
         d="m 24,15.4 c 0,2.7 -4,2.7 -4,0 0,-1 2,-4.2 2,-4.2 0,0 2,3.2 2,4.2"
         id="path176" /><path
         fill="#fff033"
         d="m 23,16.3 c 0,1.5 -2,1.5 -2,0 0,-0.5 1,-2.1 1,-2.1 0,0 1,1.6 1,2.1"
         id="path178" /><path
         fill="#9fe4ff"
         d="m 40,18.3 v 13.1 c 0,1.7 3.9,1.3 3.9,0 V 18.3 c 0,-1.7 -3.9,-1.7 -3.9,0"
         id="path180" /><path
         fill="#42ade2"
         d="m 43.9,19.5 -3.9,2 v 2.3 l 3.9,-1.9 z M 40,27.8 V 30 l 3.9,-2 v -2.2 z"
         id="path182" /><path
         fill="#ff8b00"
         d="m 44,15.3 c 0,2.7 -4,2.7 -4,0 0,-1 2,-4.2 2,-4.2 0,0 2,3.3 2,4.2"
         id="path184" /><path
         fill="#fff033"
         d="m 43,16.3 c 0,1.5 -2,1.5 -2,0 0,-0.5 1,-2.1 1,-2.1 0,0 1,1.6 1,2.1"
         id="path186" /></g><g
       aria-label="Wishlists"
       id="text436"
       style="font-weight:bold;font-size:108.719px;font-family:'Open Sans';-inkscape-font-specification:'Open Sans Bold';fill:#8800aa;stroke-width:2.11667"><path
         d="m 139.50808,95.475541 q 3.07895,-4.034494 5.4678,-7.750476 1.38022,-2.176503 7.27271,-11.89114 l 4.51226,-7.378878 q 4.99003,-8.175159 6.63568,-10.457834 2.70736,-3.875237 5.36163,-3.875237 1.91108,0 1.91108,1.486392 0,1.008624 -0.7432,2.548102 -0.53085,1.061709 -2.97278,7.378877 -2.44194,6.42334 -3.76907,14.333072 -0.95554,5.627058 -0.95554,9.608466 0,1.16788 0.10617,2.601187 0.15926,1.380222 0.42468,3.078956 2.12342,-2.654272 4.67152,-7.644304 2.44194,-4.990033 7.53814,-15.87255 4.83077,-10.404748 11.3072,-21.605778 5.30854,-9.236868 12.68742,-18.686079 3.45056,-4.459177 5.52089,-4.459177 0.90245,0 1.64565,0.902452 0.53085,0.637026 0.53085,1.433307 0,1.061709 -3.2913,5.25546 -6.47642,8.228245 -12.36891,18.208309 -6.74185,11.572629 -16.88117,32.912979 -4.51226,9.555381 -6.90111,13.589876 -2.49501,4.140667 -5.73323,4.140667 -2.76044,0 -4.14066,-2.38885 -1.38022,-2.441928 -1.38022,-7.219619 0,-7.69739 2.5481,-19.057676 -2.49502,3.132041 -5.8394,8.86527 -2.49502,4.246836 -4.83078,8.175159 -3.39747,5.680143 -4.51226,7.644305 -1.69873,3.025871 -3.50364,4.777691 -1.32714,1.27405 -3.13204,1.27405 -2.1765,0 -3.13204,-1.85799 -0.69011,-1.27405 -0.69011,-3.13204 0,-12.634339 13.27136,-45.281891 6.47642,-15.97872 7.53813,-19.588531 0.95554,-3.50364 1.91108,-4.459178 1.27405,-1.380221 2.97278,-1.380221 2.33576,0 2.33576,2.229588 0,2.707358 -2.01724,8.228245 -2.28268,6.264083 -7.3258,17.730541 -3.45055,7.909732 -4.88386,11.838055 -6.47642,19.535445 -7.16653,25.746443 z"
         style="font-weight:normal;font-family:'Freestyle Script';-inkscape-font-specification:'Freestyle Script'"
         id="path2043" /><path
         d="m 201.67114,65.694604 q 0.90245,0 1.48639,0.690111 0.42469,0.583939 0.42469,1.167879 0,0.955539 -1.53948,3.185127 -5.52089,8.546758 -7.85665,14.067645 -2.49501,5.680143 -4.40609,11.678799 -0.84937,2.654272 -2.65427,2.654272 -1.06171,0 -1.69874,-0.849367 -0.58394,-0.690111 -0.58394,-1.486393 0,-1.592563 3.39747,-10.61709 2.65427,-7.11345 8.59984,-15.713293 1.91108,-2.813529 2.86662,-3.769067 0.95554,-1.008623 1.96416,-1.008623 z m 10.08624,-19.694702 q 2.38884,0 2.38884,2.44193 0,2.229589 -2.33576,4.936947 -2.22959,2.601187 -4.29992,2.601187 -1.00862,0 -1.64565,-0.743196 -0.63702,-0.690111 -0.63702,-1.698734 0,-2.548102 2.81352,-5.414716 2.07034,-2.123418 3.71599,-2.123418 z"
         style="font-weight:normal;font-family:'Freestyle Script';-inkscape-font-specification:'Freestyle Script'"
         id="path2045" /><path
         d="m 226.46205,62.244049 q 3.2913,0 4.93694,1.16788 1.64565,1.16788 1.64565,3.556725 0,3.132042 -2.33576,6.051742 -2.22959,2.760443 -6.68876,4.459178 -2.44193,0.902452 -4.08758,0.902452 -2.22959,0 -2.22959,-1.964161 0,-1.327137 1.27405,-2.017248 0.31851,-0.159256 3.60981,-0.902452 1.96416,-0.424684 3.60981,-1.857991 1.43331,-1.220965 1.43331,-2.654272 0,-1.114795 -0.63703,-1.645649 -0.63702,-0.530855 -1.91107,-0.530855 -3.07896,0 -6.79494,2.495016 -4.29992,2.813529 -4.29992,6.688767 0,2.760443 2.81353,6.901108 3.13204,4.512264 3.13204,7.644305 0,4.67152 -4.14067,7.325792 -2.5481,1.645649 -5.78631,1.645649 -5.09621,0 -7.75048,-3.662896 -1.85799,-2.601187 -1.85799,-6.157912 0,-4.140665 2.12342,-6.954194 1.38022,-1.857991 2.86661,-1.857991 1.32714,0 1.32714,1.061709 0,0.424684 -0.47777,1.274051 -1.22096,2.282675 -1.22096,5.361631 0,2.601187 1.85799,4.406092 1.64565,1.592564 3.76906,1.592564 2.07034,0 3.23822,-1.380222 0.95553,-1.16788 0.95553,-2.972785 0,-2.229589 -2.5481,-5.786314 -3.50364,-4.883862 -3.50364,-8.865271 0,-5.308545 5.78632,-9.396124 5.62705,-3.928324 11.89114,-3.928324 z"
         style="font-weight:normal;font-family:'Freestyle Script';-inkscape-font-specification:'Freestyle Script'"
         id="path2047" /><path
         d="m 242.65311,75.780839 q 3.92832,-4.087579 7.85664,-6.848023 5.04312,-3.50364 7.21962,-3.50364 0.90246,0 1.75182,0.743197 0.95554,0.849367 0.95554,1.964161 0,1.433308 -2.28267,4.459178 -4.40609,5.8394 -6.68877,10.61709 -2.01725,4.140665 -2.01725,5.627058 0,1.433307 1.38023,1.433307 2.86661,0 9.66155,-10.192406 1.38022,-2.070333 2.49501,-2.070333 1.1148,0 1.1148,1.274051 0,2.070332 -4.0345,7.909732 -3.50364,5.096203 -7.32579,7.803561 -2.70736,1.857991 -4.88386,1.857991 -2.28267,0 -3.2913,-1.964162 -0.63702,-1.220965 -0.63702,-2.707358 0,-4.724605 3.34438,-10.776346 0.79628,-1.433307 4.77769,-8.175159 -10.82943,5.467801 -18.31448,23.623025 -0.69011,2.070332 -2.12342,2.070332 -1.00862,0 -1.64565,-0.69011 -0.63702,-0.743197 -0.63702,-1.804906 0,-1.75182 3.39747,-9.926979 6.31717,-15.182439 11.78497,-25.693358 5.4678,-10.61709 12.15657,-22.030462 1.59256,-2.760443 2.49501,-3.715981 0.90245,-0.955538 1.91108,-0.955538 0.95554,0 1.64565,1.008623 0.53085,0.743197 0.53085,1.698735 0,1.486392 -1.69873,3.981409 -5.73323,8.86527 -11.41337,19.48236 -6.10483,11.360286 -7.48505,15.500951 z"
         style="font-weight:normal;font-family:'Freestyle Script';-inkscape-font-specification:'Freestyle Script'"
         id="path2049" /><path
         d="m 272.43405,79.868419 q -1.59256,4.140665 -2.38885,6.688767 -0.79628,2.548101 -0.79628,3.556725 0,1.327136 1.27405,1.327136 1.91108,0 4.93695,-3.609811 1.43331,-1.75182 4.24684,-6.317168 1.11479,-1.804906 2.33576,-1.804906 1.38022,0 1.38022,1.327137 0,2.282674 -5.25546,9.236868 -5.4678,7.272707 -10.13932,7.272707 -2.01725,0 -3.2913,-1.698735 -0.90245,-1.220965 -0.90245,-2.972785 0,-2.972785 1.8049,-8.228245 1.80491,-5.255459 5.36163,-12.793593 9.1307,-19.163848 18.633,-31.585843 7.59121,-9.980065 12.58125,-9.980065 1.59256,0 2.60118,1.220966 1.06171,1.220965 1.06171,2.813529 0,7.431963 -13.27136,24.737819 -5.94557,7.697391 -14.2269,15.394781 -2.1765,2.017247 -5.94557,5.414716 z m 3.76907,-8.440587 q 11.04177,-9.44921 19.74778,-23.888452 4.51227,-7.485049 4.51227,-9.926979 0,-1.16788 -1.00863,-1.16788 -2.9197,0 -10.61709,11.625713 -6.37025,9.555381 -12.63433,23.357598 z"
         style="font-weight:normal;font-family:'Freestyle Script';-inkscape-font-specification:'Freestyle Script'"
         id="path2051" /><path
         d="m 300.99401,65.694604 q 0.90246,0 1.4864,0.690111 0.42468,0.583939 0.42468,1.167879 0,0.955539 -1.53948,3.185127 -5.52089,8.546758 -7.85665,14.067645 -2.49501,5.680143 -4.40609,11.678799 -0.84936,2.654272 -2.65427,2.654272 -1.06171,0 -1.69873,-0.849367 -0.58394,-0.690111 -0.58394,-1.486393 0,-1.592563 3.39746,-10.61709 2.65428,-7.11345 8.59985,-15.713293 1.91107,-2.813529 2.86661,-3.769067 0.95554,-1.008623 1.96416,-1.008623 z m 10.08624,-19.694702 q 2.38884,0 2.38884,2.44193 0,2.229589 -2.33576,4.936947 -2.22958,2.601187 -4.29992,2.601187 -1.00862,0 -1.64565,-0.743196 -0.63702,-0.690111 -0.63702,-1.698734 0,-2.548102 2.81353,-5.414716 2.07033,-2.123418 3.71598,-2.123418 z"
         style="font-weight:normal;font-family:'Freestyle Script';-inkscape-font-specification:'Freestyle Script'"
         id="path2053" /><path
         d="m 325.78493,62.244049 q 3.2913,0 4.93695,1.16788 1.64565,1.16788 1.64565,3.556725 0,3.132042 -2.33576,6.051742 -2.22959,2.760443 -6.68877,4.459178 -2.44193,0.902452 -4.08758,0.902452 -2.22959,0 -2.22959,-1.964161 0,-1.327137 1.27405,-2.017248 0.31852,-0.159256 3.60981,-0.902452 1.96416,-0.424684 3.60981,-1.857991 1.43331,-1.220965 1.43331,-2.654272 0,-1.114795 -0.63702,-1.645649 -0.63703,-0.530855 -1.91108,-0.530855 -3.07896,0 -6.79494,2.495016 -4.29992,2.813529 -4.29992,6.688767 0,2.760443 2.81353,6.901108 3.13204,4.512264 3.13204,7.644305 0,4.67152 -4.14066,7.325792 -2.54811,1.645649 -5.78632,1.645649 -5.0962,0 -7.75047,-3.662896 -1.858,-2.601187 -1.858,-6.157912 0,-4.140665 2.12342,-6.954194 1.38022,-1.857991 2.86662,-1.857991 1.32713,0 1.32713,1.061709 0,0.424684 -0.47777,1.274051 -1.22096,2.282675 -1.22096,5.361631 0,2.601187 1.85799,4.406092 1.64565,1.592564 3.76907,1.592564 2.07033,0 3.23821,-1.380222 0.95554,-1.16788 0.95554,-2.972785 0,-2.229589 -2.5481,-5.786314 -3.50364,-4.883862 -3.50364,-8.865271 0,-5.308545 5.78631,-9.396124 5.62706,-3.928324 11.89114,-3.928324 z"
         style="font-weight:normal;font-family:'Freestyle Script';-inkscape-font-specification:'Freestyle Script'"
         id="path2055" /><path
         d="m 348.5055,63.305758 q -3.45055,5.361631 -6.37025,11.997312 -4.19375,9.44921 -4.19375,14.12073 0,1.327136 0.53085,2.017247 0.58394,0.690111 1.69873,0.690111 2.65428,0 6.42334,-4.990033 2.38885,-3.078956 4.24684,-6.157912 1.00862,-1.75182 2.1765,-1.75182 0.69011,0 1.16788,0.477769 0.42469,0.47777 0.42469,0.955539 0,1.964161 -5.14929,8.759099 -6.15791,8.175159 -11.25412,8.175159 -2.70735,0 -4.51226,-2.495016 -1.11479,-1.592563 -1.11479,-4.512263 0,-6.42334 3.71598,-14.970097 0.90245,-2.123418 4.99003,-10.245492 -1.43331,0.371598 -2.1765,0.371598 -1.1148,0 -1.96417,-0.530854 -1.16788,-0.743197 -1.16788,-1.857991 0,-1.327136 1.53948,-2.123418 0.42469,-0.212342 3.92833,-0.690111 1.27405,-0.212342 3.71598,-1.008624 1.85799,-3.344383 6.05174,-9.077612 2.33576,-3.185127 3.23821,-4.140665 1.27405,-1.327136 2.22959,-1.327136 0.69011,0 1.38022,0.743196 0.63703,0.690111 0.63703,1.380222 0,1.380222 -2.97279,5.467801 -1.96416,2.654273 -2.9197,4.299922 5.89249,-1.592564 8.44059,-1.592564 2.9197,0 2.9197,2.441931 0,1.220966 -1.00863,1.804905 -0.53085,0.318513 -2.76044,0.530855 -0.90245,-0.05309 -8.0159,2.017247 -1.96416,0.58394 -3.87524,1.220965 z"
         style="font-weight:normal;font-family:'Freestyle Script';-inkscape-font-specification:'Freestyle Script'"
         id="path2057" /><path
         d="m 379.98517,62.244049 q 3.2913,0 4.93695,1.16788 1.64565,1.16788 1.64565,3.556725 0,3.132042 -2.33576,6.051742 -2.22959,2.760443 -6.68877,4.459178 -2.44193,0.902452 -4.08758,0.902452 -2.22959,0 -2.22959,-1.964161 0,-1.327137 1.27405,-2.017248 0.31852,-0.159256 3.60981,-0.902452 1.96417,-0.424684 3.60981,-1.857991 1.43331,-1.220965 1.43331,-2.654272 0,-1.114795 -0.63702,-1.645649 -0.63703,-0.530855 -1.91108,-0.530855 -3.07896,0 -6.79494,2.495016 -4.29992,2.813529 -4.29992,6.688767 0,2.760443 2.81353,6.901108 3.13204,4.512264 3.13204,7.644305 0,4.67152 -4.14066,7.325792 -2.54811,1.645649 -5.78632,1.645649 -5.0962,0 -7.75047,-3.662896 -1.85799,-2.601187 -1.85799,-6.157912 0,-4.140665 2.12341,-6.954194 1.38023,-1.857991 2.86662,-1.857991 1.32713,0 1.32713,1.061709 0,0.424684 -0.47776,1.274051 -1.22097,2.282675 -1.22097,5.361631 0,2.601187 1.85799,4.406092 1.64565,1.592564 3.76907,1.592564 2.07033,0 3.23821,-1.380222 0.95554,-1.16788 0.95554,-2.972785 0,-2.229589 -2.5481,-5.786314 -3.50364,-4.883862 -3.50364,-8.865271 0,-5.308545 5.78631,-9.396124 5.62706,-3.928324 11.89114,-3.928324 z"
         style="font-weight:normal;font-family:'Freestyle Script';-inkscape-font-specification:'Freestyle Script'"
         id="path2059" /></g><g
       fill="none"
       stroke="currentColor"
       stroke-linecap="round"
       stroke-linejoin="round"
       id="g492"
       transform="matrix(8.1602635,1.6124176,-1.6124176,8.1602635,404.23595,-1.85983)"><path
         fill="currentColor"
         d="m 13.010858,0.1821859 a 2.0779157,2.0779157 0 0 1 0.490276,0.0896736 1.9594597,1.9594597 0 0 0 -1.531154,1.64506681 c -0.01267,0.090802 -0.01953,0.1245828 -0.02277,0.1423188 a 0.19397168,0.19397168 0 0 0 -0.0026,0.015643 L 11.508865,12.469167 c -0.03422,0.816543 -0.725704,1.451587 -1.54145,1.417366 C 9.1518135,13.852379 8.5158282,13.160829 8.5500347,12.34508 l 0.06196,-1.479332 A 0.98713334,0.98713334 0 0 0 7.6671031,9.8381194 L 2.7357541,9.6314229 3.0457964,2.2344109 a 2.4678333,2.4678333 0 0 1 2.5690279,-2.36231376 z m -5.3851089,10.6422761 -0.06196,1.479332 c -0.022861,0.557334 0.148565,1.074273 0.4438765,1.500611 L 7.775831,13.794708 C 6.5381226,13.742895 6.2638873,13.7303 5.4443099,13.696942 L 5.085226,13.682056 C 3.7773571,13.629262 3.0434071,13.602376 2.6195589,13.57871 l -0.049009,-0.002 C 1.4807591,13.531128 0.63499025,12.611404 0.68069312,11.521538 l 0.0201426,-0.49318 A 0.49356659,0.49356659 0 0 1 1.2146504,10.555912 Z M 13.956765,1.2098345 c -0.177471,-0.00742 -0.347319,0.034883 -0.498941,0.1173968 -0.302959,0.1552467 -0.513355,0.4626113 -0.528694,0.8275242 l -0.08274,1.972522 0.986268,0.041339 c 0.542354,0.022755 1.004857,-0.4024763 1.027635,-0.944921 l 0.04137,-0.9862594 C 14.924135,1.6949332 14.49913,1.232548 13.956765,1.2098345 Z"
         id="path605"
         style="stroke-width:0.493567;fill:#ffeeaa" /></g></g></svg>
