<?xml version="1.0" encoding="UTF-8" standalone="no"?>
<!-- Created with Inkscape (http://www.inkscape.org/) -->

<svg
   width="500"
   height="500"
   viewBox="0 0 132.29167 132.29167"
   version="1.1"
   id="svg5"
   xml:space="preserve"
   inkscape:version="1.2.2 (732a01da63, 2022-12-09)"
   sodipodi:docname="icon.svg"
   xmlns:inkscape="http://www.inkscape.org/namespaces/inkscape"
   xmlns:sodipodi="http://sodipodi.sourceforge.net/DTD/sodipodi-0.dtd"
   xmlns="http://www.w3.org/2000/svg"
   xmlns:svg="http://www.w3.org/2000/svg"><sodipodi:namedview
     id="namedview7"
     pagecolor="#ffffff"
     bordercolor="#000000"
     borderopacity="0.25"
     inkscape:showpageshadow="2"
     inkscape:pageopacity="0.0"
     inkscape:pagecheckerboard="0"
     inkscape:deskcolor="#d1d1d1"
     inkscape:document-units="mm"
     showgrid="false"
     inkscape:zoom="0.73851712"
     inkscape:cx="635.05637"
     inkscape:cy="395.38691"
     inkscape:window-width="2560"
     inkscape:window-height="1009"
     inkscape:window-x="-8"
     inkscape:window-y="-8"
     inkscape:window-maximized="1"
     inkscape:current-layer="layer2" /><defs
     id="defs2"><inkscape:path-effect
       effect="fill_between_many"
       method="originald"
       linkedpaths="#path488,0,1"
       id="path-effect599"
       is_visible="true"
       lpeversion="0"
       join="true"
       close="true"
       autoreverse="true" /></defs><g
     inkscape:label="Ebene 1"
     inkscape:groupmode="layer"
     id="layer1"><g
       aria-label="Wishlists"
       id="text436"
       style="font-weight:bold;font-size:108.719px;font-family:'Open Sans';-inkscape-font-specification:'Open Sans Bold';fill:#8800aa;stroke-width:2.11667" /><g
       fill="none"
       stroke="currentColor"
       stroke-linecap="round"
       stroke-linejoin="round"
       id="g492"
       transform="matrix(7.1539966,1.4135855,-1.4135855,7.1539966,20.234891,6.019507)"><path
         fill="currentColor"
         d="m 13.010858,0.1821859 a 2.0779157,2.0779157 0 0 1 0.490276,0.0896736 1.9594597,1.9594597 0 0 0 -1.531154,1.6450668 c -0.01267,0.090802 -0.01953,0.1245828 -0.02277,0.1423188 a 0.19397168,0.19397168 0 0 0 -0.0026,0.015643 L 11.508865,12.469167 c -0.03422,0.816543 -0.725704,1.451587 -1.54145,1.417366 C 9.1518135,13.852379 8.5158282,13.160829 8.5500347,12.34508 l 0.06196,-1.479332 A 0.98713334,0.98713334 0 0 0 7.6671031,9.8381194 L 2.7357541,9.6314229 3.0457964,2.2344109 a 2.4678333,2.4678333 0 0 1 2.5690279,-2.36231376 z m -5.3851089,10.6422761 -0.06196,1.479332 c -0.022861,0.557334 0.148565,1.074273 0.4438765,1.500611 L 7.775831,13.794708 C 6.5381226,13.742895 6.2638873,13.7303 5.4443099,13.696942 L 5.085226,13.682056 C 3.7773571,13.629262 3.0434071,13.602376 2.6195589,13.57871 l -0.049009,-0.002 C 1.4807591,13.531128 0.63499025,12.611404 0.68069312,11.521538 l 0.0201426,-0.49318 A 0.49356659,0.49356659 0 0 1 1.2146504,10.555912 Z M 13.956765,1.2098345 c -0.177471,-0.00742 -0.347319,0.034883 -0.498941,0.1173968 -0.302959,0.1552467 -0.513355,0.4626113 -0.528694,0.8275242 l -0.08274,1.972522 0.986268,0.041339 c 0.542354,0.022755 1.004857,-0.4024763 1.027635,-0.944921 l 0.04137,-0.9862594 C 14.924135,1.6949332 14.49913,1.232548 13.956765,1.2098345 Z"
         id="path605"
         style="fill:#ffeeaa;stroke-width:0.493567" /></g></g><g
     inkscape:groupmode="layer"
     id="layer2"
     inkscape:label="Vordergund"><g
       id="g222"
       transform="matrix(0.8952353,-0.12777829,0.12777829,0.8952353,30.028195,26.765642)"><path
         fill="#d3976e"
         d="M 7.7,24.8 V 47.3 C 7.7,53 18.6,57.6 32,57.6 45.4,57.6 56.3,53 56.3,47.4 V 24.8 Z"
         id="path134" /><g
         fill="#ffdd7d"
         id="g140"><path
           d="m 56.3,31.4 c -0.1,4 -15.4,8.4 -24.3,8.4 -8.9,0 -24.2,-4.4 -24.3,-8.4 v 6.1 c 12.5,9 36.1,9 48.6,0 v -6.1"
           id="path136" /><path
           d="M 56.3,41 C 56.2,45 40.9,49.4 32,49.4 23.1,49.4 7.8,45 7.7,41 v 6.1 c 12.5,9 36.1,9 48.6,0 V 41"
           id="path138" /></g><path
         fill="#a80038"
         d="m 7.7,24.8 v 16.9 c 0,0.9 0.8,1.7 1.9,1.7 1,0 1.9,-0.7 1.9,-1.7 v -3.9 c 0,-1.2 1.1,-2.2 2.5,-2.2 1.4,0 2.5,1 2.5,2.2 v 4.8 c 0,1.4 1.3,2.6 2.9,2.6 1.6,0 2.9,-1.1 2.9,-2.6 v -4.9 c 0,-1.3 1.2,-2.3 2.6,-2.3 1.4,0 2.6,1 2.6,2.3 v 3.1 c 0,0.7 0.6,1.3 1.5,1.3 0.8,0 1.5,-0.6 1.5,-1.3 v -2.5 c 0,-0.9 0.8,-1.7 1.9,-1.7 1,0 1.9,0.7 1.9,1.7 v 4.2 c 0,1.4 1.3,2.6 2.9,2.6 1.6,0 2.9,-1.1 2.9,-2.6 v -4.7 c 0,-1.2 1.1,-2.2 2.5,-2.2 1.4,0 2.5,1 2.5,2.2 v 3.5 c 0,0.7 0.7,1.3 1.5,1.3 0.8,0 1.5,-0.6 1.5,-1.3 v -2.4 c 0,-0.6 0.6,-1.1 1.3,-1.1 0.7,0 1.3,0.5 1.3,1.1 v 3.7 c 0,1.4 1.3,2.6 2.9,2.6 1.6,0 2.9,-1.1 2.9,-2.6 V 24.9 L 7.7,24.8"
         id="path142" /><ellipse
         cx="32"
         cy="24.799999"
         fill="#ff2c68"
         rx="24.299999"
         ry="10.2"
         id="ellipse144" /><path
         fill="#ffa4a4"
         d="m 14.4,23.8 c -0.1,-6.5 28.7,-7.4 28.8,-1.6 0.1,4.3 -18.3,4.5 -18.4,1.1 -0.1,-2.4 11.4,-2.5 11.4,-0.7 0,1.8 -9.3,2.1 -7.1,-0.2 -3.7,2.8 8.1,2.9 8,0.3 -0.1,-3 -13.9,-2.6 -13.9,0.5 0.1,4.6 21.4,4.1 21.3,-1.1 -0.1,-6.8 -32,-6.5 -31.8,1.6 0.2,8.9 31.2,12.1 41.3,0.8 -13.7,10.4 -39.5,5.4 -39.6,-0.7"
         id="path146" /><path
         fill="#42ade2"
         d="m 11.8,11.6 v 10.8 c 0,1.5 3.2,1.3 3.2,0 V 11.6 c 0,-1.5 -3.2,-1.5 -3.2,0"
         id="path148" /><path
         fill="#428bc1"
         d="m 15,12.6 -3.2,1.7 v 1.9 L 15,14.6 Z m -3.2,6.9 v 1.8 L 15,19.7 v -1.9 z"
         id="path150" /><path
         fill="#ff8b00"
         d="m 15.1,9.2 c 0,2.5 -3.3,2.5 -3.3,0 0,-0.8 1.7,-3.4 1.7,-3.4 0,0 1.6,2.6 1.6,3.4"
         id="path152" /><path
         fill="#fff033"
         d="m 14.3,10 c 0,1.4 -1.7,1.4 -1.7,0 0,-0.4 0.8,-1.7 0.8,-1.7 0,0 0.9,1.3 0.9,1.7"
         id="path154" /><path
         fill="#42ade2"
         d="m 30.6,7.2 v 9.4 c 0,1.5 2.8,1.2 2.8,0 V 7.2 c 0,-1.5 -2.8,-1.5 -2.8,0"
         id="path156" /><path
         fill="#428bc1"
         d="m 33.4,8 -2.8,1.5 v 1.7 l 2.8,-1.5 z m -2.8,6 v 1.6 l 2.8,-1.4 v -1.6 z"
         id="path158" /><path
         fill="#ff8b00"
         d="m 33.4,5 c 0,2.3 -2.9,2.3 -2.9,0 0,-0.7 1.4,-3 1.4,-3 0,0 1.5,2.3 1.5,3"
         id="path160" /><path
         fill="#fff033"
         d="m 32.7,5.7 c 0,1.4 -1.4,1.4 -1.4,0 0,-0.4 0.7,-1.5 0.7,-1.5 0,0 0.7,1.1 0.7,1.5"
         id="path162" /><path
         fill="#42ade2"
         d="m 48.9,11.6 v 10.8 c 0,1.5 3.2,1.3 3.2,0 V 11.6 c 0,-1.5 -3.2,-1.5 -3.2,0"
         id="path164" /><path
         fill="#428bc1"
         d="m 52.1,12.6 -3.2,1.7 v 1.9 l 3.2,-1.7 z m -3.2,6.9 v 1.8 l 3.2,-1.7 v -1.8 z"
         id="path166" /><path
         fill="#ff8b00"
         d="m 52.2,9.2 c 0,2.5 -3.3,2.5 -3.3,0 0,-0.8 1.7,-3.4 1.7,-3.4 0,0 1.6,2.5 1.6,3.4"
         id="path168" /><path
         fill="#fff033"
         d="m 51.4,9.9 c 0,1.4 -1.7,1.4 -1.7,0 0,-0.4 0.8,-1.7 0.8,-1.7 0,0 0.9,1.3 0.9,1.7"
         id="path170" /><path
         fill="#9fe4ff"
         d="m 20,18.3 v 13.1 c 0,1.7 3.9,1.3 3.9,0 V 18.3 c 0,-1.6 -3.9,-1.6 -3.9,0"
         id="path172" /><path
         fill="#42ade2"
         d="M 23.9,19.6 20,21.5 v 2.4 l 3.9,-2 z M 20,27.8 V 30 l 3.9,-1.9 v -2.2 z"
         id="path174" /><path
         fill="#ff8b00"
         d="m 24,15.4 c 0,2.7 -4,2.7 -4,0 0,-1 2,-4.2 2,-4.2 0,0 2,3.2 2,4.2"
         id="path176" /><path
         fill="#fff033"
         d="m 23,16.3 c 0,1.5 -2,1.5 -2,0 0,-0.5 1,-2.1 1,-2.1 0,0 1,1.6 1,2.1"
         id="path178" /><path
         fill="#9fe4ff"
         d="m 40,18.3 v 13.1 c 0,1.7 3.9,1.3 3.9,0 V 18.3 c 0,-1.7 -3.9,-1.7 -3.9,0"
         id="path180" /><path
         fill="#42ade2"
         d="m 43.9,19.5 -3.9,2 v 2.3 l 3.9,-1.9 z M 40,27.8 V 30 l 3.9,-2 v -2.2 z"
         id="path182" /><path
         fill="#ff8b00"
         d="m 44,15.3 c 0,2.7 -4,2.7 -4,0 0,-1 2,-4.2 2,-4.2 0,0 2,3.3 2,4.2"
         id="path184" /><path
         fill="#fff033"
         d="m 43,16.3 c 0,1.5 -2,1.5 -2,0 0,-0.5 1,-2.1 1,-2.1 0,0 1,1.6 1,2.1"
         id="path186" /></g></g></svg>
